<svg xmlns="http://www.w3.org/2000/svg" width="298" height="345.1" y="1356"><path fill="#D22856" d="M149 70.2c-69.9 0-126.5 56.6-126.5 126.5S79.1 323.2 149 323.2s126.5-56.6 126.5-126.5S218.9 70.2 149 70.2zm0 237.2c-60.8 0-110.2-49.3-110.2-110.2C38.8 136.4 88.1 87 149 87c60.8 0 110.2 49.3 110.2 110.2S209.8 307.4 149 307.4z"/><path fill="#DEDEDE" d="M264.6 102.1l5.4-5.4c7.7-7.7 9.1-18.9 3.1-24.9s-17.2-4.6-24.9 3.1l-5.4 5.4c-21-17-46.6-28.4-74.7-32v-9.6h7.7c10.9 0 19.8-8.7 19.8-19.4S186.6 0 175.7 0h-53.3c-10.9 0-19.8 8.7-19.8 19.4s8.9 19.4 19.8 19.4h7.7v9.6C56.7 57.6 0 120.2 0 196.1c0 82.3 66.7 149 149 149s149-66.7 149-149c0-35.7-12.5-68.4-33.4-94zM149 323.2c-69.9 0-126.5-56.6-126.5-126.5S79.1 70.2 149 70.2s126.5 56.6 126.5 126.5S218.9 323.2 149 323.2z"/><path fill="#D22856" d="M143.8 236.1H84v-12.6l21.5-21.7c6.4-6.5 10.5-11 12.5-13.6 2-2.5 3.4-4.9 4.2-7 .9-2.1 1.3-4.4 1.3-6.7 0-3.4-.9-6-2.8-7.7s-4.4-2.5-7.6-2.5c-3.3 0-6.5.8-9.7 2.3-3.1 1.5-6.4 3.7-9.8 6.5l-9.8-11.7c4.2-3.6 7.7-6.1 10.5-7.6s5.8-2.6 9.1-3.4c3.3-.8 7-1.2 11-1.2 5.4 0 10.1 1 14.2 2.9 4.1 2 7.3 4.7 9.6 8.2s3.4 7.5 3.4 12.1c0 3.9-.7 7.6-2.1 11.1-1.4 3.5-3.5 7-6.4 10.6s-8 8.8-15.4 15.5l-11 10.4v.8H144v15.3h-.2zm70.5-17.7H204v17.8h-17.7v-17.8h-36.6v-12.6l37.6-55.3H204v53.8h10.3v14.1zm-28-14.1v-14.5c0-2.4.1-5.9.3-10.5s.4-7.3.5-8h-.5c-1.4 3.2-3.2 6.3-5.2 9.4l-15.7 23.7 20.6-.1z"/></svg>